<svg xmlns="http://www.w3.org/2000/svg" viewBox="0 0 64 64" role="img" aria-label="Omni Ai Sapphire Brain Logo">
  <defs>
    <linearGradient id="brainStroke" x1="10" y1="8" x2="54" y2="56" gradientUnits="userSpaceOnUse">
      <stop offset="0" stop-color="#8bbcff"/>
      <stop offset="0.52" stop-color="#0F52BA"/>
      <stop offset="1" stop-color="#0b2c69"/>
    </linearGradient>
    <filter id="brainGlow" x="-20%" y="-20%" width="140%" height="140%">
      <feDropShadow dx="0" dy="0" stdDeviation="1.8" flood-color="#0F52BA" flood-opacity="0.65"/>
    </filter>
  </defs>

  <rect x="3" y="3" width="58" height="58" rx="15" fill="#04060B" stroke="#FFFFFF" stroke-opacity="0.2" stroke-width="1.5"/>

  <g fill="none" stroke="url(#brainStroke)" stroke-width="2.2" stroke-linecap="round" stroke-linejoin="round" filter="url(#brainGlow)">
    <path d="M32 14c-5.8-5.2-14.6-2.8-17.9 3.8-3.7 7.5.2 15.6 5.8 18.9 1.7 1 2.8 2.7 3 4.7v2.2"/>
    <path d="M32 14c5.8-5.2 14.6-2.8 17.9 3.8 3.7 7.5-.2 15.6-5.8 18.9-1.7 1-2.8 2.7-3 4.7v2.2"/>
    <path d="M32 18v28"/>
    <path d="M21 24h8"/>
    <path d="M35 24h8"/>
    <path d="M19 31h10"/>
    <path d="M35 31h10"/>
    <path d="M22 38h7"/>
    <path d="M35 38h7"/>
    <path d="M24 45h16"/>
  </g>

  <g fill="#FFFFFF">
    <circle cx="21" cy="24" r="1.7"/>
    <circle cx="43" cy="24" r="1.7"/>
    <circle cx="19" cy="31" r="1.7"/>
    <circle cx="45" cy="31" r="1.7"/>
    <circle cx="24" cy="45" r="1.7"/>
    <circle cx="40" cy="45" r="1.7"/>
    <circle cx="32" cy="22" r="1.6"/>
    <circle cx="32" cy="31" r="1.6"/>
    <circle cx="32" cy="38" r="1.6"/>
  </g>
</svg>
